<svg width="33" height="26" viewBox="0 0 33 26" fill="none" xmlns="http://www.w3.org/2000/svg">
<path d="M0 25.4999C2.69659 24.5278 5.22988 20.8636 7.45378 12.0719L10.8225 0H16.9452L27.6446 25.9543C25.9401 26.0072 24.2324 26.0112 22.5279 25.9815C21.3036 25.9599 20.0217 26.0873 18.8269 25.7956C17.6173 25.4999 16.4971 24.8804 15.5715 24.0701C14.2059 22.8752 13.2442 21.2924 12.5647 19.6302C11.6595 17.4175 11.0736 15.0108 10.7782 12.6482C10.6313 11.4749 10.5492 10.2944 10.5238 9.11225C10.5 7.98064 10.3088 6.46353 10.6337 5.37038C10.1348 7.04937 9.66456 8.73799 9.27804 10.4458C8.9104 12.0711 8.57476 13.7333 8.43198 15.3931C8.28344 17.1266 8.37289 18.8737 8.73233 20.5751C8.99 21.7965 9.38719 23.0643 10.1783 24.0653C10.7937 24.8443 11.6579 25.3749 12.6722 25.4622V25.9551H0V25.5007V25.4999Z" fill="white"/>
<path d="M30.8655 25.9968C32.0444 25.9968 33 25.0635 33 23.9123C33 22.761 32.0444 21.8278 30.8655 21.8278C29.6867 21.8278 28.7311 22.761 28.7311 23.9123C28.7311 25.0635 29.6867 25.9968 30.8655 25.9968Z" fill="white"/>
</svg>
